<?xml version="1.0" encoding="iso-8859-1"?>
<!-- Generator: Adobe Illustrator 16.0.0, SVG Export Plug-In . SVG Version: 6.00 Build 0)  -->
<!DOCTYPE svg PUBLIC "-//W3C//DTD SVG 1.1//EN" "http://www.w3.org/Graphics/SVG/1.1/DTD/svg11.dtd">
<svg version="1.1" id="Capa_1" xmlns="http://www.w3.org/2000/svg" xmlns:xlink="http://www.w3.org/1999/xlink" x="0px" y="0px"
	 width="784.5px" height="784.5px" viewBox="0 0 784.5 784.5" style="enable-background:new 0 0 784.5 784.5;" xml:space="preserve"
	>
<g>
	<circle cx="417.099" cy="90" r="90"/>
	<path d="M611.399,447.1c0-0.5,0-0.8,0-0.8c-0.1-1.3-0.301-2.6-0.5-3.899c-2.1-17.301-5.6-35.2-5.6-35.2l-19-121.7l-2.301-14.9
		c-2.299-14-8-26.8-18.299-38.8c-23.9-27.7-88.301-30.5-91-30.6c-0.102,0-0.102,0-0.102,0S441.2,317.7,440.8,319v0.1V319
		c-0.4-9.3-11.1-92.7-11.1-92.7s0.1-0.1,0.199-0.4l15-24.6h-53.4l15,24.6c0.1,0.2,0.201,0.4,0.201,0.4s-10.701,83.3-11.102,92.7v0.1
		c0,0,0,0,0-0.1C395.2,317.7,361.4,199.9,361.2,199.3c-28.4,0-61.3,0-89.6,0c6.1-13.1,24.2-69,35.1-98.5c9.3-25.2-11-54.7-37.8-54.2
		C244.8,47,233,64.8,225.7,83c-17.5,43.5-33.1,87.8-48.9,132.1c-1.8,4.9-3.5,9.9-5.3,14.8c-0.5,2.7-0.7,5.5-0.7,8.3
		c0,16.6,8.5,31.1,21.4,39.6c7.4,4.9,16.3,7.7,25.8,7.7h32.1H307c0,9.3,0,16.9,0,24.5c0,59.4,0,118.7,0.1,178.1l0.1-0.1
		c0,0.2,0,0.4,0,0.7c0,75.3-0.3,150.5,0,225.8c0,2.6,0.2,10.6,0.2,12c0,31.9,25.8,57.8,57.6,58c23.9-0.2,44.3-14.8,53-35.6
		c0.9,0,0,0,0.9,0c8.701,20.699,29.1,35.399,53,35.6c31.9-0.2,57.6-26.1,57.6-58c0-1.4,0.201-9.4,0.201-12
		c0.299-75.3,0-150.5,0-225.8c0-0.2,0-0.4,0-0.7l0.1,0.1c7.801,12.9,22,21.601,38.301,21.601c24.699,0,44.799-20,44.799-44.8
		c0-0.2,0-0.5,0-0.7C612.399,459.5,611.999,453.4,611.399,447.1z"/>
	<path d="M613.7,570.9c0-18.301-14.801-33.2-33.201-33.2c-18.299,0-33.199,14.8-33.199,33.2v137.3l0,0c0,0.2,0,0.399,0,0.7
		c0,18.3,14.799,33.199,33.199,33.199c18.301,0,33.201-14.8,33.201-33.199c0-0.2,0-0.4,0-0.7l0,0V570.9z"/>
</g>
<g>
</g>
<g>
</g>
<g>
</g>
<g>
</g>
<g>
</g>
<g>
</g>
<g>
</g>
<g>
</g>
<g>
</g>
<g>
</g>
<g>
</g>
<g>
</g>
<g>
</g>
<g>
</g>
<g>
</g>
</svg>
