<svg id="svg" version="1.1" xmlns="http://www.w3.org/2000/svg" xmlns:xlink="http://www.w3.org/1999/xlink" width="400" height="400" viewBox="0, 0, 400,400"><g id="svgg"><path id="path0" d="M0.000 200.000 L 0.000 400.000 7.200 400.000 L 14.400 400.000 14.400 275.224 C 14.400 192.471,14.535 150.364,14.800 150.200 C 15.031 150.057,15.200 147.924,15.200 145.162 C 15.200 141.295,15.333 140.168,15.892 139.316 C 16.273 138.735,16.728 137.166,16.904 135.830 C 17.518 131.161,17.685 130.427,18.241 129.966 C 18.568 129.695,18.806 128.733,18.814 127.651 C 18.822 126.633,19.086 125.350,19.400 124.800 C 19.714 124.250,19.978 123.255,19.986 122.589 C 19.994 121.923,20.247 121.023,20.549 120.589 C 20.851 120.155,21.225 119.217,21.380 118.505 C 21.535 117.792,21.850 117.093,22.080 116.950 C 22.311 116.808,23.029 115.591,23.677 114.246 C 25.715 110.012,26.209 109.190,27.261 108.283 C 27.824 107.797,28.419 106.950,28.583 106.400 C 29.102 104.655,36.771 97.242,38.556 96.759 C 39.488 96.508,40.948 95.549,42.195 94.369 C 43.340 93.286,44.406 92.400,44.563 92.400 C 44.721 92.400,45.783 91.971,46.925 91.446 C 48.066 90.921,49.690 90.390,50.533 90.265 C 51.376 90.141,52.828 89.671,53.759 89.220 C 54.690 88.769,55.840 88.400,56.313 88.400 C 57.143 88.400,58.968 87.731,61.332 86.561 C 61.955 86.252,63.485 85.994,64.732 85.986 C 65.980 85.978,67.450 85.714,68.000 85.400 C 68.672 85.016,70.312 84.819,73.000 84.800 C 75.688 84.781,77.328 84.584,78.000 84.200 C 78.773 83.758,80.824 83.625,87.039 83.614 C 93.360 83.603,95.334 83.472,96.279 83.000 C 97.227 82.527,97.748 82.493,98.741 82.839 C 99.629 83.149,100.353 83.155,101.200 82.860 C 102.035 82.569,102.765 82.569,103.600 82.860 C 104.435 83.151,105.165 83.151,106.000 82.860 C 106.835 82.569,107.565 82.569,108.400 82.860 C 109.242 83.154,109.968 83.150,110.836 82.847 C 111.784 82.517,112.320 82.545,113.141 82.969 C 114.050 83.440,114.367 83.440,115.266 82.968 C 116.079 82.543,116.609 82.515,117.562 82.847 C 118.438 83.152,119.155 83.154,120.015 82.855 C 120.815 82.576,121.575 82.562,122.241 82.816 C 123.840 83.424,123.988 83.326,125.024 80.984 C 125.905 78.991,125.948 78.659,125.450 77.684 C 125.026 76.854,125.000 76.366,125.337 75.600 C 125.580 75.050,125.904 71.630,126.057 68.000 C 126.419 59.391,127.131 52.815,127.817 51.740 C 128.119 51.268,128.650 49.110,128.999 46.946 C 129.347 44.782,129.896 42.608,130.218 42.116 C 130.540 41.624,131.062 40.115,131.378 38.763 C 131.693 37.411,132.306 35.974,132.740 35.570 C 133.174 35.166,133.656 34.242,133.811 33.518 C 134.219 31.615,136.189 27.589,137.366 26.251 C 137.922 25.619,138.488 24.752,138.624 24.324 C 138.760 23.896,139.800 22.575,140.936 21.388 C 142.071 20.201,143.203 18.999,143.451 18.715 C 143.699 18.432,144.239 17.894,144.651 17.520 C 145.510 16.740,146.154 16.103,147.120 15.079 C 147.494 14.682,148.520 14.033,149.400 13.637 C 150.280 13.240,151.343 12.530,151.762 12.058 C 152.181 11.586,152.768 11.200,153.066 11.200 C 153.364 11.200,153.915 10.842,154.290 10.404 C 154.665 9.966,155.855 9.314,156.934 8.956 C 158.013 8.597,159.235 7.965,159.648 7.552 C 160.062 7.138,160.678 6.800,161.017 6.800 C 161.356 6.800,162.751 6.281,164.117 5.646 C 165.483 5.011,167.402 4.359,168.382 4.197 C 169.361 4.035,170.801 3.572,171.582 3.169 C 172.362 2.766,174.440 2.241,176.200 2.001 C 177.960 1.762,180.165 1.460,181.100 1.331 C 182.158 1.185,182.800 0.889,182.800 0.548 C 182.800 0.086,168.521 0.000,91.400 0.000 L 0.000 0.000 0.000 200.000 M383.909 125.100 C 383.809 240.403,383.748 250.314,383.139 251.655 C 382.718 252.582,382.314 255.264,382.023 259.055 C 381.571 264.939,381.298 266.670,380.452 269.000 C 380.213 269.660,379.914 271.044,379.788 272.075 C 379.662 273.106,379.109 274.611,378.560 275.421 C 378.011 276.230,377.389 277.804,377.177 278.919 C 376.966 280.033,376.469 281.498,376.073 282.173 C 375.677 282.848,375.118 284.246,374.830 285.280 C 374.543 286.314,373.968 287.467,373.554 287.842 C 373.139 288.217,372.800 288.726,372.800 288.973 C 372.800 289.220,372.235 290.041,371.543 290.798 C 370.852 291.554,370.051 292.737,369.764 293.425 C 369.070 295.085,361.063 303.131,359.422 303.816 C 358.713 304.113,357.543 304.905,356.824 305.578 C 356.104 306.250,355.292 306.800,355.020 306.800 C 354.747 306.800,354.193 307.166,353.788 307.613 C 353.384 308.060,352.287 308.618,351.351 308.854 C 350.415 309.090,349.340 309.625,348.961 310.043 C 348.583 310.461,347.537 310.992,346.636 311.224 C 345.736 311.455,344.280 311.977,343.400 312.383 C 341.503 313.260,338.470 314.000,336.774 314.000 C 336.107 314.000,334.984 314.308,334.280 314.685 C 333.060 315.338,331.461 315.596,324.200 316.309 C 322.440 316.482,320.640 316.825,320.200 317.072 C 319.084 317.698,309.162 318.038,288.694 318.153 C 278.497 318.211,271.032 318.408,270.814 318.626 C 270.608 318.832,270.343 321.971,270.226 325.600 C 269.768 339.776,269.574 342.483,268.976 343.081 C 268.644 343.413,268.394 344.450,268.386 345.529 C 268.378 346.558,268.114 347.850,267.800 348.400 C 267.486 348.950,267.222 350.378,267.214 351.574 C 267.202 353.513,266.608 355.407,265.171 358.095 C 264.967 358.477,264.800 359.411,264.800 360.171 C 264.800 360.931,264.637 361.654,264.437 361.777 C 264.238 361.900,263.797 362.816,263.458 363.811 C 263.119 364.807,262.472 366.091,262.021 366.665 C 261.569 367.238,261.200 367.983,261.200 368.319 C 261.200 368.655,260.682 369.756,260.049 370.765 C 259.415 371.774,258.792 373.050,258.663 373.600 C 258.192 375.606,244.833 388.349,243.161 388.386 C 242.810 388.394,242.116 388.752,241.620 389.183 C 241.124 389.613,240.061 390.180,239.259 390.443 C 238.457 390.706,237.260 391.324,236.600 391.817 C 235.940 392.309,234.827 392.834,234.128 392.982 C 233.428 393.130,232.641 393.510,232.379 393.826 C 232.117 394.142,231.345 394.400,230.664 394.400 C 229.303 394.400,226.144 395.455,225.200 396.225 C 224.870 396.494,223.340 396.818,221.800 396.944 C 215.434 397.468,213.200 398.065,213.200 399.243 C 213.200 399.984,215.226 400.000,306.600 400.000 L 400.000 400.000 400.000 200.000 L 400.000 0.000 392.009 0.000 L 384.017 0.000 383.909 125.100 " stroke="none" fill="#fbfbfb" fill-rule="evenodd"></path><path id="path1" d="M96.254 83.000 C 95.350 83.474,93.414 83.603,87.054 83.614 C 80.826 83.625,78.773 83.758,78.000 84.200 C 77.328 84.584,75.688 84.781,73.000 84.800 C 70.312 84.819,68.672 85.016,68.000 85.400 C 67.450 85.714,65.980 85.978,64.732 85.986 C 63.485 85.994,61.955 86.252,61.332 86.561 C 58.968 87.731,57.143 88.400,56.313 88.400 C 55.840 88.400,54.690 88.769,53.759 89.220 C 52.828 89.671,51.376 90.141,50.533 90.265 C 49.690 90.390,48.066 90.921,46.925 91.446 C 45.783 91.971,44.721 92.400,44.563 92.400 C 44.406 92.400,43.340 93.286,42.195 94.369 C 40.948 95.549,39.488 96.508,38.556 96.759 C 36.771 97.242,29.102 104.655,28.583 106.400 C 28.419 106.950,27.824 107.797,27.261 108.283 C 26.209 109.190,25.715 110.012,23.677 114.246 C 23.029 115.591,22.311 116.808,22.080 116.950 C 21.850 117.093,21.535 117.792,21.380 118.505 C 21.225 119.217,20.851 120.155,20.549 120.589 C 20.247 121.023,19.994 121.923,19.986 122.589 C 19.978 123.255,19.714 124.250,19.400 124.800 C 19.086 125.350,18.822 126.633,18.814 127.651 C 18.806 128.733,18.568 129.695,18.241 129.966 C 17.685 130.427,17.518 131.161,16.904 135.830 C 16.728 137.166,16.273 138.735,15.892 139.316 C 15.333 140.168,15.200 141.295,15.200 145.162 C 15.200 147.924,15.031 150.057,14.800 150.200 C 14.535 150.364,14.400 192.471,14.400 275.224 L 14.400 400.000 113.800 400.000 C 211.061 400.000,213.200 399.984,213.200 399.243 C 213.200 398.065,215.434 397.468,221.800 396.944 C 223.340 396.818,224.870 396.494,225.200 396.225 C 226.144 395.455,229.303 394.400,230.664 394.400 C 231.345 394.400,232.117 394.142,232.379 393.826 C 232.641 393.510,233.428 393.130,234.128 392.982 C 234.827 392.834,235.940 392.309,236.600 391.817 C 237.260 391.324,238.457 390.706,239.259 390.443 C 240.061 390.180,241.124 389.613,241.620 389.183 C 242.116 388.752,242.810 388.394,243.161 388.386 C 244.833 388.349,258.192 375.606,258.663 373.600 C 258.792 373.050,259.415 371.774,260.049 370.765 C 260.682 369.756,261.200 368.655,261.200 368.319 C 261.200 367.983,261.569 367.238,262.021 366.665 C 262.472 366.091,263.119 364.807,263.458 363.811 C 263.797 362.816,264.238 361.900,264.437 361.777 C 264.637 361.654,264.800 360.931,264.800 360.171 C 264.800 359.411,264.967 358.477,265.171 358.095 C 266.608 355.407,267.202 353.513,267.214 351.574 C 267.222 350.378,267.486 348.950,267.800 348.400 C 268.114 347.850,268.378 346.558,268.386 345.529 C 268.394 344.450,268.644 343.413,268.976 343.081 C 269.388 342.669,269.616 341.093,269.773 337.552 C 270.604 318.856,270.611 318.412,270.067 318.204 C 269.774 318.092,237.774 318.000,198.954 318.000 C 138.226 318.000,128.181 317.919,126.987 317.420 L 125.600 316.841 125.600 200.594 C 125.600 80.840,125.622 82.485,124.028 82.991 C 123.631 83.117,122.839 83.043,122.268 82.826 C 121.571 82.561,120.830 82.570,120.015 82.855 C 119.155 83.154,118.438 83.152,117.562 82.847 C 116.609 82.515,116.079 82.543,115.266 82.968 C 114.367 83.440,114.050 83.440,113.141 82.969 C 112.320 82.545,111.784 82.517,110.836 82.847 C 109.968 83.150,109.242 83.154,108.400 82.860 C 107.565 82.569,106.835 82.569,106.000 82.860 C 105.162 83.152,104.434 83.151,103.585 82.855 C 102.752 82.564,102.033 82.559,101.301 82.838 C 100.324 83.209,99.380 83.143,97.937 82.602 C 97.642 82.491,96.884 82.671,96.254 83.000 " stroke="none" fill="#fcac9c" fill-rule="evenodd"></path><path id="path2" d="M196.800 0.606 C 196.800 1.725,194.286 2.321,187.662 2.773 C 183.214 3.076,180.731 3.422,179.893 3.855 C 179.215 4.206,177.477 4.651,176.031 4.845 C 169.745 5.687,168.869 5.887,167.804 6.725 C 167.105 7.275,166.130 7.600,165.177 7.600 C 164.127 7.600,163.280 7.921,162.419 8.645 C 161.736 9.220,160.473 9.848,159.613 10.042 C 158.753 10.235,157.561 10.845,156.966 11.397 C 156.370 11.948,155.464 12.400,154.951 12.400 C 154.398 12.400,153.752 12.806,153.365 13.397 C 153.006 13.946,152.030 14.599,151.196 14.848 C 150.327 15.109,149.465 15.704,149.176 16.245 C 148.899 16.763,148.350 17.289,147.956 17.414 C 147.563 17.539,147.129 17.994,146.992 18.425 C 146.855 18.856,146.216 19.481,145.572 19.815 C 144.927 20.148,144.400 20.702,144.400 21.045 C 144.400 21.388,143.320 22.794,142.000 24.169 C 140.680 25.543,139.600 26.853,139.600 27.079 C 139.600 27.305,139.060 28.169,138.400 29.000 C 137.740 29.831,137.200 30.921,137.200 31.424 C 137.200 31.927,136.782 32.847,136.270 33.469 C 135.759 34.091,135.047 35.654,134.688 36.943 C 134.329 38.232,133.745 39.499,133.389 39.758 C 132.980 40.058,132.621 41.215,132.409 42.923 C 132.226 44.405,131.689 46.378,131.216 47.308 C 130.547 48.626,130.267 50.233,129.950 54.579 C 129.727 57.647,129.341 60.527,129.092 60.979 C 128.843 61.430,128.467 62.790,128.256 64.000 C 127.669 67.358,127.463 315.153,128.046 315.856 C 128.642 316.574,271.961 316.679,272.678 315.962 C 272.954 315.686,274.054 315.608,275.658 315.751 C 277.056 315.875,278.515 315.967,278.900 315.955 C 279.285 315.943,280.860 315.933,282.400 315.933 C 283.940 315.933,285.560 315.933,286.000 315.933 C 286.647 315.933,290.461 315.921,292.900 315.912 C 294.928 315.904,313.477 315.178,318.872 314.895 C 323.505 314.652,325.746 314.377,326.206 313.995 C 326.829 313.478,328.002 313.256,334.405 312.444 C 335.837 312.262,337.727 311.752,338.605 311.311 C 339.482 310.869,340.920 310.379,341.800 310.220 C 342.680 310.062,344.538 309.408,345.928 308.766 C 347.318 308.125,348.789 307.600,349.197 307.600 C 349.605 307.600,350.460 307.162,351.096 306.626 C 351.733 306.090,352.727 305.533,353.306 305.388 C 353.884 305.243,354.642 304.691,354.988 304.162 C 355.335 303.633,355.874 303.200,356.187 303.200 C 356.500 303.200,357.440 302.571,358.278 301.802 C 359.115 301.033,359.964 300.403,360.165 300.402 C 360.366 300.401,361.552 299.320,362.800 298.000 C 364.048 296.680,365.279 295.600,365.535 295.600 C 365.791 295.600,366.000 295.393,366.000 295.139 C 366.000 294.627,367.903 291.930,369.900 289.612 C 370.615 288.782,371.200 287.824,371.200 287.482 C 371.200 287.141,371.651 286.325,372.203 285.669 C 372.774 284.991,373.379 283.565,373.608 282.359 C 373.966 280.468,374.473 279.625,375.261 279.606 C 375.404 279.603,375.647 278.520,375.800 277.199 C 375.953 275.879,376.241 274.698,376.439 274.576 C 376.638 274.453,376.800 273.717,376.800 272.939 C 376.800 272.158,377.139 271.095,377.558 270.563 C 378.106 269.865,378.394 268.605,378.601 265.985 C 378.801 263.464,379.086 262.172,379.544 261.715 C 380.755 260.507,380.848 251.947,381.035 125.300 L 381.219 0.000 289.010 0.000 C 206.875 0.000,196.800 0.066,196.800 0.606 " stroke="none" fill="#0454bc" fill-rule="evenodd"></path><path id="path3" d="M188.299 0.744 C 188.155 1.292,187.590 1.554,186.152 1.739 C 185.078 1.877,183.210 2.165,182.000 2.378 C 180.790 2.591,178.630 2.888,177.200 3.038 C 175.770 3.187,174.408 3.460,174.173 3.643 C 173.938 3.827,172.768 4.174,171.573 4.414 C 169.032 4.925,167.240 5.544,166.400 6.201 C 166.070 6.459,164.768 6.892,163.507 7.162 C 162.246 7.433,161.113 7.817,160.990 8.016 C 160.867 8.215,159.230 9.129,157.353 10.046 C 155.476 10.963,153.217 12.318,152.332 13.057 C 151.448 13.795,150.437 14.400,150.086 14.400 C 149.445 14.400,139.602 24.300,139.601 24.946 C 139.600 25.137,138.970 26.151,138.200 27.200 C 137.430 28.249,136.800 29.241,136.800 29.405 C 136.800 29.568,136.240 30.894,135.555 32.351 C 132.395 39.075,131.823 40.505,131.379 42.800 C 131.230 43.570,130.949 44.398,130.756 44.639 C 130.432 45.042,129.714 48.469,128.793 54.000 C 128.591 55.210,128.234 57.190,127.999 58.400 C 127.655 60.174,127.310 65.387,126.790 76.700 C 126.777 76.975,126.782 77.965,126.801 78.900 C 126.820 79.835,126.647 81.229,126.418 81.997 C 126.132 82.955,126.000 120.145,126.000 200.049 L 126.000 316.703 127.103 317.160 C 129.228 318.040,311.399 317.340,313.141 316.446 C 313.504 316.259,315.960 315.987,318.600 315.839 C 323.562 315.562,329.119 314.752,332.600 313.799 C 333.700 313.498,335.950 312.989,337.600 312.668 C 340.977 312.011,347.481 309.818,348.398 309.027 C 348.729 308.741,349.463 308.398,350.029 308.264 C 350.595 308.130,351.728 307.566,352.547 307.010 C 353.366 306.455,354.185 306.000,354.369 306.000 C 354.552 306.000,354.921 305.736,355.188 305.414 C 355.597 304.921,358.345 302.926,360.714 301.400 C 361.909 300.631,366.830 295.381,368.400 293.200 C 369.271 291.990,370.261 290.640,370.599 290.200 C 372.302 287.982,374.022 284.881,374.251 283.618 C 374.392 282.838,374.913 281.480,375.409 280.600 C 375.905 279.720,376.436 278.286,376.590 277.414 C 376.743 276.541,377.213 275.343,377.634 274.752 C 378.055 274.160,378.410 273.164,378.423 272.538 C 378.436 271.912,378.806 270.140,379.246 268.600 C 380.346 264.748,380.763 262.198,381.209 256.600 C 381.419 253.960,381.797 250.180,382.049 248.200 C 383.000 240.725,382.963 0.000,382.011 0.000 C 381.224 0.000,381.218 0.774,381.035 125.300 C 380.848 251.947,380.755 260.507,379.544 261.715 C 379.086 262.172,378.801 263.464,378.601 265.985 C 378.394 268.605,378.106 269.865,377.558 270.563 C 377.139 271.095,376.800 272.158,376.800 272.939 C 376.800 273.717,376.638 274.453,376.439 274.576 C 376.241 274.698,375.953 275.879,375.800 277.199 C 375.647 278.520,375.404 279.603,375.261 279.606 C 374.473 279.625,373.966 280.468,373.608 282.359 C 373.379 283.565,372.774 284.991,372.203 285.669 C 371.651 286.325,371.200 287.141,371.200 287.482 C 371.200 287.824,370.615 288.782,369.900 289.612 C 367.903 291.930,366.000 294.627,366.000 295.139 C 366.000 295.393,365.791 295.600,365.535 295.600 C 365.279 295.600,364.048 296.680,362.800 298.000 C 361.552 299.320,360.366 300.401,360.165 300.402 C 359.964 300.403,359.115 301.033,358.278 301.802 C 357.440 302.571,356.500 303.200,356.187 303.200 C 355.874 303.200,355.335 303.633,354.988 304.162 C 354.642 304.691,353.884 305.243,353.306 305.388 C 352.727 305.533,351.733 306.090,351.096 306.626 C 350.460 307.162,349.605 307.600,349.197 307.600 C 348.789 307.600,347.318 308.125,345.928 308.766 C 344.538 309.408,342.680 310.062,341.800 310.220 C 340.920 310.379,339.482 310.869,338.605 311.311 C 337.727 311.752,335.837 312.262,334.405 312.444 C 328.002 313.256,326.829 313.478,326.206 313.995 C 325.746 314.377,323.505 314.652,318.872 314.895 C 313.477 315.178,294.928 315.904,292.900 315.912 C 290.461 315.921,286.647 315.933,286.000 315.933 C 285.560 315.933,283.940 315.933,282.400 315.933 C 280.860 315.933,279.285 315.943,278.900 315.955 C 278.515 315.967,277.056 315.875,275.658 315.751 C 274.054 315.608,272.954 315.686,272.678 315.962 C 271.961 316.679,128.642 316.574,128.046 315.856 C 127.463 315.153,127.669 67.358,128.256 64.000 C 128.467 62.790,128.843 61.430,129.092 60.979 C 129.341 60.527,129.727 57.647,129.950 54.579 C 130.267 50.233,130.547 48.626,131.216 47.308 C 131.689 46.378,132.226 44.405,132.409 42.923 C 132.621 41.215,132.980 40.058,133.389 39.758 C 133.745 39.499,134.329 38.232,134.688 36.943 C 135.047 35.654,135.759 34.091,136.270 33.469 C 136.782 32.847,137.200 31.927,137.200 31.424 C 137.200 30.921,137.740 29.831,138.400 29.000 C 139.060 28.169,139.600 27.305,139.600 27.079 C 139.600 26.853,140.680 25.543,142.000 24.169 C 143.320 22.794,144.400 21.388,144.400 21.045 C 144.400 20.702,144.927 20.148,145.572 19.815 C 146.216 19.481,146.855 18.856,146.992 18.425 C 147.129 17.994,147.563 17.539,147.956 17.414 C 148.350 17.289,148.899 16.763,149.176 16.245 C 149.465 15.704,150.327 15.109,151.196 14.848 C 152.030 14.599,153.006 13.946,153.365 13.397 C 153.752 12.806,154.398 12.400,154.951 12.400 C 155.464 12.400,156.370 11.948,156.966 11.397 C 157.561 10.845,158.753 10.235,159.613 10.042 C 160.473 9.848,161.736 9.220,162.419 8.645 C 163.280 7.921,164.127 7.600,165.177 7.600 C 166.130 7.600,167.105 7.275,167.804 6.725 C 168.869 5.887,169.745 5.687,176.031 4.845 C 177.477 4.651,179.215 4.206,179.893 3.855 C 180.731 3.422,183.214 3.076,187.662 2.773 C 194.286 2.321,196.800 1.725,196.800 0.606 C 196.800 -0.410,188.566 -0.277,188.299 0.744 " stroke="none" fill="#4c8cd4" fill-rule="evenodd"></path><path id="path4" d="M182.800 0.548 C 182.800 0.889,182.158 1.185,181.100 1.331 C 180.165 1.460,177.960 1.762,176.200 2.001 C 174.440 2.241,172.362 2.766,171.582 3.169 C 170.801 3.572,169.361 4.035,168.382 4.197 C 167.402 4.359,165.483 5.011,164.117 5.646 C 162.751 6.281,161.356 6.800,161.017 6.800 C 160.678 6.800,160.062 7.138,159.648 7.552 C 159.235 7.965,158.013 8.597,156.934 8.956 C 155.855 9.314,154.665 9.966,154.290 10.404 C 153.915 10.842,153.364 11.200,153.066 11.200 C 152.768 11.200,152.181 11.586,151.762 12.058 C 151.343 12.530,150.280 13.240,149.400 13.637 C 148.520 14.033,147.494 14.682,147.120 15.079 C 146.154 16.103,145.510 16.740,144.651 17.520 C 144.239 17.894,143.699 18.432,143.451 18.715 C 143.203 18.999,142.071 20.201,140.936 21.388 C 139.800 22.575,138.760 23.896,138.624 24.324 C 138.488 24.752,137.922 25.619,137.366 26.251 C 136.189 27.589,134.219 31.615,133.811 33.518 C 133.656 34.242,133.174 35.166,132.740 35.570 C 132.306 35.974,131.693 37.411,131.378 38.763 C 131.062 40.115,130.540 41.624,130.218 42.116 C 129.896 42.608,129.347 44.782,128.999 46.946 C 128.650 49.110,128.119 51.268,127.817 51.740 C 127.131 52.815,126.419 59.391,126.057 68.000 C 125.904 71.630,125.580 75.050,125.337 75.600 C 125.000 76.364,125.026 76.853,125.445 77.674 C 125.929 78.621,125.899 78.969,125.197 80.607 C 124.479 82.282,124.460 82.550,125.000 83.322 C 125.530 84.078,125.600 97.765,125.600 200.475 L 125.600 316.772 126.434 317.218 C 126.893 317.464,127.357 317.577,127.464 317.469 C 127.572 317.361,127.287 317.154,126.830 317.010 L 126.000 316.746 126.000 200.070 C 126.000 120.151,126.132 82.955,126.418 81.997 C 126.647 81.229,126.820 79.835,126.801 78.900 C 126.782 77.965,126.777 76.975,126.790 76.700 C 127.310 65.387,127.655 60.174,127.999 58.400 C 128.234 57.190,128.591 55.210,128.793 54.000 C 129.714 48.469,130.432 45.042,130.756 44.639 C 130.949 44.398,131.230 43.570,131.379 42.800 C 131.823 40.505,132.395 39.075,135.555 32.351 C 136.240 30.894,136.800 29.568,136.800 29.405 C 136.800 29.241,137.430 28.249,138.200 27.200 C 138.970 26.151,139.600 25.137,139.601 24.946 C 139.602 24.300,149.445 14.400,150.086 14.400 C 150.437 14.400,151.448 13.795,152.332 13.057 C 153.217 12.318,155.476 10.963,157.353 10.046 C 159.230 9.129,160.867 8.215,160.990 8.016 C 161.113 7.817,162.246 7.433,163.507 7.162 C 164.768 6.892,166.070 6.459,166.400 6.201 C 167.240 5.544,169.032 4.925,171.573 4.414 C 172.768 4.174,173.938 3.826,174.173 3.642 C 174.408 3.457,175.680 3.199,177.000 3.069 C 178.320 2.938,180.570 2.627,182.000 2.377 C 183.430 2.127,185.408 1.805,186.395 1.662 C 189.643 1.189,189.095 0.000,185.629 0.000 C 183.500 0.000,182.800 0.136,182.800 0.548 M382.655 122.300 C 382.548 211.021,382.381 245.588,382.049 248.200 C 381.797 250.180,381.419 253.960,381.209 256.600 C 380.763 262.198,380.346 264.748,379.246 268.600 C 378.806 270.140,378.436 271.912,378.423 272.538 C 378.410 273.164,378.055 274.160,377.634 274.752 C 377.213 275.343,376.743 276.541,376.590 277.414 C 376.436 278.286,375.905 279.720,375.409 280.600 C 374.913 281.480,374.392 282.838,374.251 283.618 C 374.022 284.881,372.302 287.982,370.599 290.200 C 370.261 290.640,369.271 291.990,368.400 293.200 C 366.830 295.381,361.909 300.631,360.714 301.400 C 358.345 302.926,355.597 304.921,355.188 305.414 C 354.921 305.736,354.552 306.000,354.369 306.000 C 354.185 306.000,353.366 306.455,352.547 307.010 C 351.728 307.566,350.595 308.130,350.029 308.264 C 349.463 308.398,348.729 308.741,348.398 309.027 C 347.481 309.818,340.977 312.011,337.600 312.668 C 335.950 312.989,333.700 313.498,332.600 313.799 C 329.119 314.752,323.562 315.562,318.600 315.839 C 315.960 315.987,313.504 316.259,313.141 316.446 C 312.094 316.984,278.859 317.316,200.600 317.572 L 127.800 317.810 199.000 317.966 C 238.160 318.051,275.150 318.139,281.200 318.161 C 299.648 318.227,319.045 317.714,320.087 317.133 C 320.589 316.853,322.440 316.482,324.200 316.309 C 331.461 315.596,333.060 315.338,334.280 314.685 C 334.984 314.308,336.107 314.000,336.774 314.000 C 338.470 314.000,341.503 313.260,343.400 312.383 C 344.280 311.977,345.736 311.455,346.636 311.224 C 347.537 310.992,348.583 310.461,348.961 310.043 C 349.340 309.625,350.415 309.090,351.351 308.854 C 352.287 308.618,353.384 308.060,353.788 307.613 C 354.193 307.166,354.747 306.800,355.020 306.800 C 355.292 306.800,356.104 306.250,356.824 305.578 C 357.543 304.905,358.713 304.113,359.422 303.816 C 361.063 303.131,369.070 295.085,369.764 293.425 C 370.051 292.737,370.852 291.554,371.543 290.798 C 372.235 290.041,372.800 289.220,372.800 288.973 C 372.800 288.726,373.139 288.217,373.554 287.842 C 373.968 287.467,374.543 286.314,374.830 285.280 C 375.118 284.246,375.677 282.848,376.073 282.173 C 376.469 281.498,376.966 280.033,377.177 278.919 C 377.389 277.804,378.011 276.230,378.560 275.421 C 379.109 274.611,379.662 273.106,379.788 272.075 C 379.914 271.044,380.213 269.660,380.452 269.000 C 381.298 266.670,381.571 264.939,382.023 259.055 C 382.314 255.264,382.718 252.582,383.139 251.655 C 384.113 249.510,384.381 0.000,383.410 0.000 C 382.868 0.000,382.787 13.269,382.655 122.300 " stroke="none" fill="#8cb4e4" fill-rule="evenodd"></path></g></svg>